<svg xmlns="http://www.w3.org/2000/svg" version="1.1" xmlns:xlink="http://www.w3.org/1999/xlink" xmlns:svgjs="http://svgjs.dev/svgjs" width="1000" height="1125" viewBox="0 0 1000 1125"><g transform="matrix(1,0,0,1,0,0)"><svg viewBox="0 0 320 360" data-background-color="#282634" preserveAspectRatio="xMidYMid meet" height="1125" width="1000" xmlns="http://www.w3.org/2000/svg" xmlns:xlink="http://www.w3.org/1999/xlink"><g id="tight-bounds" transform="matrix(1,0,0,1,0,0)"><svg viewBox="0 0 320 360" height="360" width="320"><g><svg></svg></g><g><svg viewBox="0 0 320 360" height="360" width="320"><g><path d="M320 187.111c0-45.764-20.238-86.866-52.203-114.908-28.043-31.964-69.145-52.203-114.908-52.203-84.302 0-152.889 68.587-152.889 152.889 0 45.753 20.231 86.848 52.185 114.891 28.043 31.975 69.152 52.22 114.926 52.22 0.299 0 0.59-0.021 0.889-0.021 0.299 0 0.59 0.021 0.889 0.021 83.456 0 151.111-67.655 151.111-151.111 0-0.299-0.021-0.59-0.021-0.889 0-0.299 0.021-0.59 0.021-0.889zM59.833 263.097c-15.093-21.255-24.071-47.143-24.256-75.097 0.48-72.928 59.492-131.943 132.423-132.423 27.954 0.185 53.845 9.163 75.097 24.256 24.366 23.627 39.57 56.64 39.57 93.056 0 71.559-58.219 129.778-129.778 129.778-36.416 0-69.429-15.204-93.056-39.57zM3.556 172.889c0-82.343 66.99-149.333 149.333-149.333 35.051 0 67.292 12.167 92.8 32.462-22.98-13.824-49.863-21.796-78.578-21.796-84.302 0-152.889 68.587-152.889 152.889 0 28.708 7.968 55.584 21.785 78.56-20.288-25.5-32.452-57.739-32.451-92.782zM167.111 318.667c-35.84 0-68.363-14.418-92.107-37.743 21.952 15.89 48.864 25.298 77.885 25.298 73.522 0 133.333-59.812 133.333-133.333 0-29.02-9.408-55.932-25.298-77.885 23.324 23.744 37.742 56.267 37.743 92.107 0 72.54-59.015 131.556-131.556 131.556z" fill="#ff4057" fill-rule="nonzero" stroke="none" stroke-width="1" stroke-linecap="butt" stroke-linejoin="miter" stroke-miterlimit="10" stroke-dasharray="" stroke-dashoffset="0" font-family="none" font-weight="none" font-size="none" text-anchor="none" style="mix-blend-mode: normal" data-fill-palette-color="tertiary"></path></g><g transform="matrix(1,0,0,1,99.31008902077153,99)"><svg viewBox="0 0 121.37982195845696 162" height="162" width="121.37982195845696"><g><svg viewBox="0 0 121.37982195845696 162" height="162" width="121.37982195845696"><g><svg viewBox="0 0 121.37982195845696 162" height="162" width="121.37982195845696"><g><svg viewBox="0 0 121.37982195845696 162" height="162" width="121.37982195845696"><g><svg viewBox="0 0 121.37982195845696 162" height="162" width="121.37982195845696"><g><svg viewBox="0 0 121.37982195845696 162" height="162" width="121.37982195845696"><g transform="matrix(1,0,0,1,0,0)"><svg width="121.37982195845696" viewBox="3.25 -33.7 25.25 33.7" height="162" data-palette-color="#ff4057"><path d="M17.8 0L17.8 0 3.25 0 3.25-33.7 16.35-33.7Q21.9-33.7 24.8-31.08 27.7-28.45 27.7-24.4L27.7-24.4Q27.7-21.75 26.3-19.75 24.9-17.75 22.65-17.05L22.65-17.05Q28.5-15.3 28.5-9.15L28.5-9.15Q28.5-5.15 25.63-2.58 22.75 0 17.8 0ZM15.05-27.55L15.05-27.55 10.95-27.55 10.95-20 13.8-20Q16.8-20 18.32-21.1 19.85-22.2 19.85-24L19.85-24Q19.85-27.55 15.05-27.55ZM15.05-13.95L15.05-13.95 10.95-13.95 10.95-6.15 15-6.15Q20.7-6.15 20.7-10.05 20.7-13.95 15.05-13.95Z" opacity="1" transform="matrix(1,0,0,1,0,0)" fill="#ff4057" class="undefined-text-0" data-fill-palette-color="primary" id="text-0"></path></svg></g></svg></g></svg></g></svg></g></svg></g></svg></g></svg></g></svg></g><defs></defs></svg><rect width="320" height="360" fill="none" stroke="none" visibility="hidden"></rect></g></svg></g></svg>